<?xml version="1.0" encoding="UTF-8"?>
<svg xmlns="http://www.w3.org/2000/svg" xmlns:xlink="http://www.w3.org/1999/xlink"
     width="4500.0" height="6000.0" viewBox="0 -6000.0 4500.0 6000.0">
<defs>
</defs>
<text x="118.11023622047244" y="-5763.779527559055" font-size="100.0" dy="0em">EVA 6mm foam templates for Hammond 1550P, pg 1</text>
<path d="M496.0629921259843,-5645.669291338583 L1918.1102362204724,-5645.669291338583" stroke="black" stroke-width="2" fill="none" />
<path d="M1918.1102362204724,-5645.669291338583 L1918.1102362204724,-5267.716535433071" stroke="black" stroke-width="2" fill="none" />
<path d="M1918.1102362204724,-5267.716535433071 L2296.0629921259842,-5267.716535433071" stroke="black" stroke-width="2" fill="none" />
<path d="M2296.0629921259842,-5267.716535433071 L2296.0629921259842,-4440.944881889764" stroke="black" stroke-width="2" fill="none" />
<path d="M2296.0629921259842,-4440.944881889764 L1918.1102362204724,-4440.944881889764" stroke="black" stroke-width="2" fill="none" />
<path d="M1918.1102362204724,-4440.944881889764 L1918.1102362204724,-4062.992125984252" stroke="black" stroke-width="2" fill="none" />
<path d="M1918.1102362204724,-4062.992125984252 L496.0629921259843,-4062.992125984252" stroke="black" stroke-width="2" fill="none" />
<path d="M496.0629921259843,-4062.992125984252 L496.0629921259843,-4440.944881889764" stroke="black" stroke-width="2" fill="none" />
<path d="M496.0629921259843,-4440.944881889764 L118.11023622047244,-4440.944881889764" stroke="black" stroke-width="2" fill="none" />
<path d="M118.11023622047244,-4440.944881889764 L118.11023622047244,-5267.716535433071" stroke="black" stroke-width="2" fill="none" />
<path d="M118.11023622047244,-5267.716535433071 L496.0629921259843,-5267.716535433071" stroke="black" stroke-width="2" fill="none" />
<path d="M496.0629921259843,-5267.716535433071 L496.0629921259843,-5645.669291338583" stroke="black" stroke-width="2" fill="none" />
<path d="M118.11023622047244,-3944.88188976378 L1700.7874015748034,-3944.88188976378" stroke="black" stroke-width="2" fill="none" />
<path d="M1700.7874015748034,-3944.88188976378 L1693.700787401575,-3344.8818897637793" stroke="black" stroke-width="2" fill="none" />
<path d="M1693.700787401575,-3344.8818897637793 L125.19685039370073,-3344.8818897637793" stroke="black" stroke-width="2" fill="none" />
<path d="M125.19685039370073,-3344.8818897637793 L118.11023622047236,-3944.88188976378" stroke="black" stroke-width="2" fill="none" />
<path d="M118.11023622047244,-3226.7716535433074 L1700.7874015748034,-3226.7716535433074" stroke="black" stroke-width="2" fill="none" />
<path d="M1700.7874015748034,-3226.7716535433074 L1693.700787401575,-2626.7716535433074" stroke="black" stroke-width="2" fill="none" />
<path d="M1693.700787401575,-2626.7716535433074 L125.19685039370073,-2626.7716535433074" stroke="black" stroke-width="2" fill="none" />
<path d="M125.19685039370073,-2626.7716535433074 L118.11023622047236,-3226.7716535433074" stroke="black" stroke-width="2" fill="none" />
<path d="M118.11023622047244,-2508.6614173228345 L2296.0629921259842,-2508.6614173228345" stroke="black" stroke-width="2" fill="none" />
<path d="M2296.0629921259842,-2508.6614173228345 L2286.6141732283468,-1908.6614173228345" stroke="black" stroke-width="2" fill="none" />
<path d="M2286.6141732283468,-1908.6614173228345 L127.55905511811038,-1908.6614173228345" stroke="black" stroke-width="2" fill="none" />
<path d="M127.55905511811038,-1908.6614173228345 L118.11023622047261,-2508.6614173228345" stroke="black" stroke-width="2" fill="none" />
<path d="M118.11023622047244,-1790.5511811023619 L2296.0629921259842,-1790.5511811023619" stroke="black" stroke-width="2" fill="none" />
<path d="M2296.0629921259842,-1790.5511811023619 L2286.6141732283468,-1190.5511811023619" stroke="black" stroke-width="2" fill="none" />
<path d="M2286.6141732283468,-1190.5511811023616 L127.55905511811038,-1190.5511811023616" stroke="black" stroke-width="2" fill="none" />
<path d="M127.55905511811038,-1190.5511811023616 L118.11023622047261,-1790.5511811023619" stroke="black" stroke-width="2" fill="none" />
<text x="118.11023622047244" y="-283.46456692913387" font-size="100.0" dy="0em">14cm Ruler</text>
<text x="3425.196850393701" y="-283.46456692913387" font-size="100.0" text-anchor="end" dy="0em">github.com/hammond-foam</text>
<path d="M118.11023622047244,-236.2204724409449 L354.33070866141736,-236.2204724409449" stroke="black" stroke-width="2" fill="none" />
<path d="M354.33070866141736,-236.2204724409449 L354.33070866141736,-118.11023622047244" stroke="black" stroke-width="2" fill="none" />
<path d="M354.33070866141736,-118.11023622047244 L118.11023622047244,-118.11023622047244" stroke="black" stroke-width="2" fill="none" />
<path d="M118.11023622047244,-118.11023622047244 L118.11023622047244,-236.2204724409449" stroke="black" stroke-width="2" fill="none" />
<path d="M354.33070866141736,-236.2204724409449 L590.5511811023622,-236.2204724409449" stroke="black" stroke-width="2" fill="none" />
<path d="M590.5511811023622,-236.2204724409449 L590.5511811023622,-118.11023622047244" stroke="black" stroke-width="2" fill="none" />
<path d="M590.5511811023622,-118.11023622047244 L354.33070866141736,-118.11023622047244" stroke="black" stroke-width="2" fill="none" />
<path d="M354.33070866141736,-118.11023622047244 L354.33070866141736,-236.2204724409449" stroke="black" stroke-width="2" fill="none" />
<path d="M590.5511811023622,-236.2204724409449 L826.7716535433071,-236.2204724409449" stroke="black" stroke-width="2" fill="none" />
<path d="M826.7716535433071,-236.2204724409449 L826.7716535433071,-118.11023622047244" stroke="black" stroke-width="2" fill="none" />
<path d="M826.7716535433071,-118.11023622047244 L590.5511811023622,-118.11023622047244" stroke="black" stroke-width="2" fill="none" />
<path d="M590.5511811023622,-118.11023622047244 L590.5511811023622,-236.2204724409449" stroke="black" stroke-width="2" fill="none" />
<path d="M826.7716535433071,-236.2204724409449 L1062.992125984252,-236.2204724409449" stroke="black" stroke-width="2" fill="none" />
<path d="M1062.992125984252,-236.2204724409449 L1062.992125984252,-118.11023622047244" stroke="black" stroke-width="2" fill="none" />
<path d="M1062.992125984252,-118.11023622047244 L826.7716535433071,-118.11023622047244" stroke="black" stroke-width="2" fill="none" />
<path d="M826.7716535433071,-118.11023622047244 L826.7716535433071,-236.2204724409449" stroke="black" stroke-width="2" fill="none" />
<path d="M1062.992125984252,-236.2204724409449 L1299.212598425197,-236.2204724409449" stroke="black" stroke-width="2" fill="none" />
<path d="M1299.212598425197,-236.2204724409449 L1299.212598425197,-118.11023622047244" stroke="black" stroke-width="2" fill="none" />
<path d="M1299.212598425197,-118.11023622047244 L1062.992125984252,-118.11023622047244" stroke="black" stroke-width="2" fill="none" />
<path d="M1062.992125984252,-118.11023622047244 L1062.992125984252,-236.2204724409449" stroke="black" stroke-width="2" fill="none" />
<path d="M1299.212598425197,-236.2204724409449 L1535.4330708661419,-236.2204724409449" stroke="black" stroke-width="2" fill="none" />
<path d="M1535.4330708661419,-236.2204724409449 L1535.4330708661419,-118.11023622047244" stroke="black" stroke-width="2" fill="none" />
<path d="M1535.4330708661419,-118.11023622047244 L1299.212598425197,-118.11023622047244" stroke="black" stroke-width="2" fill="none" />
<path d="M1299.212598425197,-118.11023622047244 L1299.212598425197,-236.2204724409449" stroke="black" stroke-width="2" fill="none" />
<path d="M1535.4330708661419,-236.2204724409449 L1771.6535433070867,-236.2204724409449" stroke="black" stroke-width="2" fill="none" />
<path d="M1771.6535433070867,-236.2204724409449 L1771.6535433070867,-118.11023622047244" stroke="black" stroke-width="2" fill="none" />
<path d="M1771.6535433070867,-118.11023622047244 L1535.4330708661419,-118.11023622047244" stroke="black" stroke-width="2" fill="none" />
<path d="M1535.4330708661419,-118.11023622047244 L1535.4330708661419,-236.2204724409449" stroke="black" stroke-width="2" fill="none" />
<path d="M1771.6535433070867,-236.2204724409449 L2007.8740157480318,-236.2204724409449" stroke="black" stroke-width="2" fill="none" />
<path d="M2007.8740157480318,-236.2204724409449 L2007.8740157480318,-118.11023622047244" stroke="black" stroke-width="2" fill="none" />
<path d="M2007.8740157480318,-118.11023622047244 L1771.6535433070867,-118.11023622047244" stroke="black" stroke-width="2" fill="none" />
<path d="M1771.6535433070867,-118.11023622047244 L1771.6535433070867,-236.2204724409449" stroke="black" stroke-width="2" fill="none" />
<path d="M2007.8740157480318,-236.2204724409449 L2244.0944881889764,-236.2204724409449" stroke="black" stroke-width="2" fill="none" />
<path d="M2244.0944881889764,-236.2204724409449 L2244.0944881889764,-118.11023622047244" stroke="black" stroke-width="2" fill="none" />
<path d="M2244.0944881889764,-118.11023622047244 L2007.8740157480318,-118.11023622047244" stroke="black" stroke-width="2" fill="none" />
<path d="M2007.8740157480318,-118.11023622047244 L2007.8740157480318,-236.2204724409449" stroke="black" stroke-width="2" fill="none" />
<path d="M2244.0944881889764,-236.2204724409449 L2480.3149606299216,-236.2204724409449" stroke="black" stroke-width="2" fill="none" />
<path d="M2480.3149606299216,-236.2204724409449 L2480.3149606299216,-118.11023622047244" stroke="black" stroke-width="2" fill="none" />
<path d="M2480.3149606299216,-118.11023622047244 L2244.0944881889764,-118.11023622047244" stroke="black" stroke-width="2" fill="none" />
<path d="M2244.0944881889764,-118.11023622047244 L2244.0944881889764,-236.2204724409449" stroke="black" stroke-width="2" fill="none" />
<path d="M2480.3149606299216,-236.2204724409449 L2716.535433070866,-236.2204724409449" stroke="black" stroke-width="2" fill="none" />
<path d="M2716.535433070866,-236.2204724409449 L2716.535433070866,-118.11023622047244" stroke="black" stroke-width="2" fill="none" />
<path d="M2716.535433070866,-118.11023622047244 L2480.3149606299216,-118.11023622047244" stroke="black" stroke-width="2" fill="none" />
<path d="M2480.3149606299216,-118.11023622047244 L2480.3149606299216,-236.2204724409449" stroke="black" stroke-width="2" fill="none" />
<path d="M2716.535433070866,-236.2204724409449 L2952.7559055118113,-236.2204724409449" stroke="black" stroke-width="2" fill="none" />
<path d="M2952.7559055118113,-236.2204724409449 L2952.7559055118113,-118.11023622047244" stroke="black" stroke-width="2" fill="none" />
<path d="M2952.7559055118113,-118.11023622047244 L2716.535433070866,-118.11023622047244" stroke="black" stroke-width="2" fill="none" />
<path d="M2716.535433070866,-118.11023622047244 L2716.535433070866,-236.2204724409449" stroke="black" stroke-width="2" fill="none" />
<path d="M2952.7559055118113,-236.2204724409449 L3188.976377952756,-236.2204724409449" stroke="black" stroke-width="2" fill="none" />
<path d="M3188.976377952756,-236.2204724409449 L3188.976377952756,-118.11023622047244" stroke="black" stroke-width="2" fill="none" />
<path d="M3188.976377952756,-118.11023622047244 L2952.7559055118113,-118.11023622047244" stroke="black" stroke-width="2" fill="none" />
<path d="M2952.7559055118113,-118.11023622047244 L2952.7559055118113,-236.2204724409449" stroke="black" stroke-width="2" fill="none" />
<path d="M3188.976377952756,-236.2204724409449 L3425.196850393701,-236.2204724409449" stroke="black" stroke-width="2" fill="none" />
<path d="M3425.196850393701,-236.2204724409449 L3425.196850393701,-118.11023622047244" stroke="black" stroke-width="2" fill="none" />
<path d="M3425.196850393701,-118.11023622047244 L3188.976377952756,-118.11023622047244" stroke="black" stroke-width="2" fill="none" />
<path d="M3188.976377952756,-118.11023622047244 L3188.976377952756,-236.2204724409449" stroke="black" stroke-width="2" fill="none" />
</svg>