<?xml version="1.0" encoding="UTF-8"?>
<svg xmlns="http://www.w3.org/2000/svg" xmlns:xlink="http://www.w3.org/1999/xlink"
     width="4500.0" height="6000.0" viewBox="0 -6000.0 4500.0 6000.0">
<defs>
</defs>
<text x="118.11023622047244" y="-5763.779527559055" font-size="100.0" dy="0em">EVA 6mm foam templates for Hammond 1590BB (Tayda clone), pg 1</text>
<path d="M496.0629921259843,-5645.669291338583 L2862.992125984252,-5645.669291338583" stroke="black" stroke-width="2" fill="none" />
<path d="M2862.992125984252,-5645.669291338583 L2862.992125984252,-5267.716535433071" stroke="black" stroke-width="2" fill="none" />
<path d="M2862.992125984252,-5267.716535433071 L3240.944881889764,-5267.716535433071" stroke="black" stroke-width="2" fill="none" />
<path d="M3240.944881889764,-5267.716535433071 L3240.944881889764,-3496.0629921259842" stroke="black" stroke-width="2" fill="none" />
<path d="M3240.944881889764,-3496.0629921259842 L2862.9921259842517,-3496.0629921259842" stroke="black" stroke-width="2" fill="none" />
<path d="M2862.9921259842517,-3496.0629921259842 L2862.9921259842517,-3118.110236220473" stroke="black" stroke-width="2" fill="none" />
<path d="M2862.9921259842517,-3118.110236220473 L496.06299212598395,-3118.110236220473" stroke="black" stroke-width="2" fill="none" />
<path d="M496.06299212598395,-3118.110236220473 L496.06299212598395,-3496.0629921259842" stroke="black" stroke-width="2" fill="none" />
<path d="M496.06299212598395,-3496.0629921259842 L118.11023622047212,-3496.0629921259842" stroke="black" stroke-width="2" fill="none" />
<path d="M118.11023622047212,-3496.0629921259842 L118.11023622047212,-5267.716535433071" stroke="black" stroke-width="2" fill="none" />
<path d="M118.11023622047212,-5267.716535433071 L496.06299212598395,-5267.716535433071" stroke="black" stroke-width="2" fill="none" />
<path d="M496.06299212598395,-5267.716535433071 L496.06299212598395,-5645.669291338583" stroke="black" stroke-width="2" fill="none" />
<path d="M118.11023622047244,-3000.0 L2645.6692913385828,-3000.0" stroke="black" stroke-width="2" fill="none" />
<path d="M2645.6692913385828,-3000.0 L2630.314960629921,-2118.897637795276" stroke="black" stroke-width="2" fill="none" />
<path d="M2630.314960629921,-2118.8976377952754 L133.46456692913367,-2118.8976377952754" stroke="black" stroke-width="2" fill="none" />
<path d="M133.46456692913367,-2118.8976377952754 L118.11023622047229,-3000.0" stroke="black" stroke-width="2" fill="none" />
<path d="M118.11023622047244,-2000.787401574803 L2645.6692913385828,-2000.787401574803" stroke="black" stroke-width="2" fill="none" />
<path d="M2645.6692913385828,-2000.787401574803 L2630.314960629921,-1119.6850393700786" stroke="black" stroke-width="2" fill="none" />
<path d="M2630.314960629921,-1119.6850393700781 L133.46456692913367,-1119.6850393700781" stroke="black" stroke-width="2" fill="none" />
<path d="M133.46456692913367,-1119.6850393700781 L118.11023622047229,-2000.7874015748025" stroke="black" stroke-width="2" fill="none" />
<text x="118.11023622047244" y="-283.46456692913387" font-size="100.0" dy="0em">14cm Ruler</text>
<text x="3425.196850393701" y="-283.46456692913387" font-size="100.0" text-anchor="end" dy="0em">github.com/hammond-foam</text>
<path d="M118.11023622047244,-236.2204724409449 L354.33070866141736,-236.2204724409449" stroke="black" stroke-width="2" fill="none" />
<path d="M354.33070866141736,-236.2204724409449 L354.33070866141736,-118.11023622047244" stroke="black" stroke-width="2" fill="none" />
<path d="M354.33070866141736,-118.11023622047244 L118.11023622047244,-118.11023622047244" stroke="black" stroke-width="2" fill="none" />
<path d="M118.11023622047244,-118.11023622047244 L118.11023622047244,-236.2204724409449" stroke="black" stroke-width="2" fill="none" />
<path d="M354.33070866141736,-236.2204724409449 L590.5511811023622,-236.2204724409449" stroke="black" stroke-width="2" fill="none" />
<path d="M590.5511811023622,-236.2204724409449 L590.5511811023622,-118.11023622047244" stroke="black" stroke-width="2" fill="none" />
<path d="M590.5511811023622,-118.11023622047244 L354.33070866141736,-118.11023622047244" stroke="black" stroke-width="2" fill="none" />
<path d="M354.33070866141736,-118.11023622047244 L354.33070866141736,-236.2204724409449" stroke="black" stroke-width="2" fill="none" />
<path d="M590.5511811023622,-236.2204724409449 L826.7716535433071,-236.2204724409449" stroke="black" stroke-width="2" fill="none" />
<path d="M826.7716535433071,-236.2204724409449 L826.7716535433071,-118.11023622047244" stroke="black" stroke-width="2" fill="none" />
<path d="M826.7716535433071,-118.11023622047244 L590.5511811023622,-118.11023622047244" stroke="black" stroke-width="2" fill="none" />
<path d="M590.5511811023622,-118.11023622047244 L590.5511811023622,-236.2204724409449" stroke="black" stroke-width="2" fill="none" />
<path d="M826.7716535433071,-236.2204724409449 L1062.992125984252,-236.2204724409449" stroke="black" stroke-width="2" fill="none" />
<path d="M1062.992125984252,-236.2204724409449 L1062.992125984252,-118.11023622047244" stroke="black" stroke-width="2" fill="none" />
<path d="M1062.992125984252,-118.11023622047244 L826.7716535433071,-118.11023622047244" stroke="black" stroke-width="2" fill="none" />
<path d="M826.7716535433071,-118.11023622047244 L826.7716535433071,-236.2204724409449" stroke="black" stroke-width="2" fill="none" />
<path d="M1062.992125984252,-236.2204724409449 L1299.212598425197,-236.2204724409449" stroke="black" stroke-width="2" fill="none" />
<path d="M1299.212598425197,-236.2204724409449 L1299.212598425197,-118.11023622047244" stroke="black" stroke-width="2" fill="none" />
<path d="M1299.212598425197,-118.11023622047244 L1062.992125984252,-118.11023622047244" stroke="black" stroke-width="2" fill="none" />
<path d="M1062.992125984252,-118.11023622047244 L1062.992125984252,-236.2204724409449" stroke="black" stroke-width="2" fill="none" />
<path d="M1299.212598425197,-236.2204724409449 L1535.4330708661419,-236.2204724409449" stroke="black" stroke-width="2" fill="none" />
<path d="M1535.4330708661419,-236.2204724409449 L1535.4330708661419,-118.11023622047244" stroke="black" stroke-width="2" fill="none" />
<path d="M1535.4330708661419,-118.11023622047244 L1299.212598425197,-118.11023622047244" stroke="black" stroke-width="2" fill="none" />
<path d="M1299.212598425197,-118.11023622047244 L1299.212598425197,-236.2204724409449" stroke="black" stroke-width="2" fill="none" />
<path d="M1535.4330708661419,-236.2204724409449 L1771.6535433070867,-236.2204724409449" stroke="black" stroke-width="2" fill="none" />
<path d="M1771.6535433070867,-236.2204724409449 L1771.6535433070867,-118.11023622047244" stroke="black" stroke-width="2" fill="none" />
<path d="M1771.6535433070867,-118.11023622047244 L1535.4330708661419,-118.11023622047244" stroke="black" stroke-width="2" fill="none" />
<path d="M1535.4330708661419,-118.11023622047244 L1535.4330708661419,-236.2204724409449" stroke="black" stroke-width="2" fill="none" />
<path d="M1771.6535433070867,-236.2204724409449 L2007.8740157480318,-236.2204724409449" stroke="black" stroke-width="2" fill="none" />
<path d="M2007.8740157480318,-236.2204724409449 L2007.8740157480318,-118.11023622047244" stroke="black" stroke-width="2" fill="none" />
<path d="M2007.8740157480318,-118.11023622047244 L1771.6535433070867,-118.11023622047244" stroke="black" stroke-width="2" fill="none" />
<path d="M1771.6535433070867,-118.11023622047244 L1771.6535433070867,-236.2204724409449" stroke="black" stroke-width="2" fill="none" />
<path d="M2007.8740157480318,-236.2204724409449 L2244.0944881889764,-236.2204724409449" stroke="black" stroke-width="2" fill="none" />
<path d="M2244.0944881889764,-236.2204724409449 L2244.0944881889764,-118.11023622047244" stroke="black" stroke-width="2" fill="none" />
<path d="M2244.0944881889764,-118.11023622047244 L2007.8740157480318,-118.11023622047244" stroke="black" stroke-width="2" fill="none" />
<path d="M2007.8740157480318,-118.11023622047244 L2007.8740157480318,-236.2204724409449" stroke="black" stroke-width="2" fill="none" />
<path d="M2244.0944881889764,-236.2204724409449 L2480.3149606299216,-236.2204724409449" stroke="black" stroke-width="2" fill="none" />
<path d="M2480.3149606299216,-236.2204724409449 L2480.3149606299216,-118.11023622047244" stroke="black" stroke-width="2" fill="none" />
<path d="M2480.3149606299216,-118.11023622047244 L2244.0944881889764,-118.11023622047244" stroke="black" stroke-width="2" fill="none" />
<path d="M2244.0944881889764,-118.11023622047244 L2244.0944881889764,-236.2204724409449" stroke="black" stroke-width="2" fill="none" />
<path d="M2480.3149606299216,-236.2204724409449 L2716.535433070866,-236.2204724409449" stroke="black" stroke-width="2" fill="none" />
<path d="M2716.535433070866,-236.2204724409449 L2716.535433070866,-118.11023622047244" stroke="black" stroke-width="2" fill="none" />
<path d="M2716.535433070866,-118.11023622047244 L2480.3149606299216,-118.11023622047244" stroke="black" stroke-width="2" fill="none" />
<path d="M2480.3149606299216,-118.11023622047244 L2480.3149606299216,-236.2204724409449" stroke="black" stroke-width="2" fill="none" />
<path d="M2716.535433070866,-236.2204724409449 L2952.7559055118113,-236.2204724409449" stroke="black" stroke-width="2" fill="none" />
<path d="M2952.7559055118113,-236.2204724409449 L2952.7559055118113,-118.11023622047244" stroke="black" stroke-width="2" fill="none" />
<path d="M2952.7559055118113,-118.11023622047244 L2716.535433070866,-118.11023622047244" stroke="black" stroke-width="2" fill="none" />
<path d="M2716.535433070866,-118.11023622047244 L2716.535433070866,-236.2204724409449" stroke="black" stroke-width="2" fill="none" />
<path d="M2952.7559055118113,-236.2204724409449 L3188.976377952756,-236.2204724409449" stroke="black" stroke-width="2" fill="none" />
<path d="M3188.976377952756,-236.2204724409449 L3188.976377952756,-118.11023622047244" stroke="black" stroke-width="2" fill="none" />
<path d="M3188.976377952756,-118.11023622047244 L2952.7559055118113,-118.11023622047244" stroke="black" stroke-width="2" fill="none" />
<path d="M2952.7559055118113,-118.11023622047244 L2952.7559055118113,-236.2204724409449" stroke="black" stroke-width="2" fill="none" />
<path d="M3188.976377952756,-236.2204724409449 L3425.196850393701,-236.2204724409449" stroke="black" stroke-width="2" fill="none" />
<path d="M3425.196850393701,-236.2204724409449 L3425.196850393701,-118.11023622047244" stroke="black" stroke-width="2" fill="none" />
<path d="M3425.196850393701,-118.11023622047244 L3188.976377952756,-118.11023622047244" stroke="black" stroke-width="2" fill="none" />
<path d="M3188.976377952756,-118.11023622047244 L3188.976377952756,-236.2204724409449" stroke="black" stroke-width="2" fill="none" />
</svg>