<?xml version="1.0" encoding="UTF-8"?>
<svg xmlns="http://www.w3.org/2000/svg" xmlns:xlink="http://www.w3.org/1999/xlink"
     width="4500.0" height="6000.0" viewBox="0 -6000.0 4500.0 6000.0">
<defs>
</defs>
<text x="118.11023622047244" y="-5763.779527559055" font-size="100.0" dy="0em">EVA 6mm foam templates for Hammond 1590B, pg 1</text>
<path d="M496.0629921259843,-5645.669291338583 L2678.740157480315,-5645.669291338583" stroke="black" stroke-width="2" fill="none" />
<path d="M2678.740157480315,-5645.669291338583 L2678.740157480315,-5267.716535433071" stroke="black" stroke-width="2" fill="none" />
<path d="M2678.740157480315,-5267.716535433071 L3056.692913385827,-5267.716535433071" stroke="black" stroke-width="2" fill="none" />
<path d="M3056.692913385827,-5267.716535433071 L3056.692913385827,-4311.023622047244" stroke="black" stroke-width="2" fill="none" />
<path d="M3056.692913385827,-4311.023622047244 L2678.740157480315,-4311.023622047244" stroke="black" stroke-width="2" fill="none" />
<path d="M2678.740157480315,-4311.023622047244 L2678.740157480315,-3933.070866141733" stroke="black" stroke-width="2" fill="none" />
<path d="M2678.740157480315,-3933.070866141733 L496.0629921259843,-3933.070866141733" stroke="black" stroke-width="2" fill="none" />
<path d="M496.0629921259843,-3933.070866141733 L496.0629921259843,-4311.023622047244" stroke="black" stroke-width="2" fill="none" />
<path d="M496.0629921259843,-4311.023622047244 L118.11023622047244,-4311.023622047244" stroke="black" stroke-width="2" fill="none" />
<path d="M118.11023622047244,-4311.023622047244 L118.11023622047244,-5267.716535433071" stroke="black" stroke-width="2" fill="none" />
<path d="M118.11023622047244,-5267.716535433071 L496.0629921259843,-5267.716535433071" stroke="black" stroke-width="2" fill="none" />
<path d="M496.0629921259843,-5267.716535433071 L496.0629921259843,-5645.669291338583" stroke="black" stroke-width="2" fill="none" />
<path d="M118.11023622047244,-3814.96062992126 L1830.7086614173231,-3814.96062992126" stroke="black" stroke-width="2" fill="none" />
<path d="M1830.7086614173231,-3814.96062992126 L1809.4488188976377,-3080.3149606299216" stroke="black" stroke-width="2" fill="none" />
<path d="M1809.4488188976377,-3080.3149606299216 L139.37007874015728,-3080.3149606299216" stroke="black" stroke-width="2" fill="none" />
<path d="M139.37007874015728,-3080.3149606299216 L118.11023622047229,-3814.96062992126" stroke="black" stroke-width="2" fill="none" />
<path d="M118.11023622047244,-2962.2047244094488 L1830.7086614173231,-2962.2047244094488" stroke="black" stroke-width="2" fill="none" />
<path d="M1830.7086614173231,-2962.2047244094488 L1809.4488188976377,-2227.5590551181103" stroke="black" stroke-width="2" fill="none" />
<path d="M1809.4488188976377,-2227.5590551181103 L139.37007874015728,-2227.5590551181103" stroke="black" stroke-width="2" fill="none" />
<path d="M139.37007874015728,-2227.5590551181103 L118.11023622047229,-2962.2047244094488" stroke="black" stroke-width="2" fill="none" />
<path d="M118.11023622047244,-2109.4488188976384 L3056.692913385827,-2109.4488188976384" stroke="black" stroke-width="2" fill="none" />
<path d="M3056.692913385827,-2109.4488188976384 L3036.6141732283468,-1374.8031496062995" stroke="black" stroke-width="2" fill="none" />
<path d="M3036.6141732283468,-1374.8031496062997 L138.18897637795297,-1374.8031496062997" stroke="black" stroke-width="2" fill="none" />
<path d="M138.18897637795297,-1374.8031496062997 L118.11023622047261,-2109.4488188976384" stroke="black" stroke-width="2" fill="none" />
<path d="M118.11023622047244,-1256.6929133858273 L3056.692913385827,-1256.6929133858273" stroke="black" stroke-width="2" fill="none" />
<path d="M3056.692913385827,-1256.6929133858273 L3036.6141732283468,-522.0472440944886" stroke="black" stroke-width="2" fill="none" />
<path d="M3036.6141732283468,-522.0472440944887 L138.18897637795297,-522.0472440944887" stroke="black" stroke-width="2" fill="none" />
<path d="M138.18897637795297,-522.0472440944887 L118.11023622047261,-1256.6929133858275" stroke="black" stroke-width="2" fill="none" />
<text x="118.11023622047244" y="-283.46456692913387" font-size="100.0" dy="0em">14cm Ruler</text>
<text x="3425.196850393701" y="-283.46456692913387" font-size="100.0" text-anchor="end" dy="0em">github.com/hammond-foam</text>
<path d="M118.11023622047244,-236.2204724409449 L354.33070866141736,-236.2204724409449" stroke="black" stroke-width="2" fill="none" />
<path d="M354.33070866141736,-236.2204724409449 L354.33070866141736,-118.11023622047244" stroke="black" stroke-width="2" fill="none" />
<path d="M354.33070866141736,-118.11023622047244 L118.11023622047244,-118.11023622047244" stroke="black" stroke-width="2" fill="none" />
<path d="M118.11023622047244,-118.11023622047244 L118.11023622047244,-236.2204724409449" stroke="black" stroke-width="2" fill="none" />
<path d="M354.33070866141736,-236.2204724409449 L590.5511811023622,-236.2204724409449" stroke="black" stroke-width="2" fill="none" />
<path d="M590.5511811023622,-236.2204724409449 L590.5511811023622,-118.11023622047244" stroke="black" stroke-width="2" fill="none" />
<path d="M590.5511811023622,-118.11023622047244 L354.33070866141736,-118.11023622047244" stroke="black" stroke-width="2" fill="none" />
<path d="M354.33070866141736,-118.11023622047244 L354.33070866141736,-236.2204724409449" stroke="black" stroke-width="2" fill="none" />
<path d="M590.5511811023622,-236.2204724409449 L826.7716535433071,-236.2204724409449" stroke="black" stroke-width="2" fill="none" />
<path d="M826.7716535433071,-236.2204724409449 L826.7716535433071,-118.11023622047244" stroke="black" stroke-width="2" fill="none" />
<path d="M826.7716535433071,-118.11023622047244 L590.5511811023622,-118.11023622047244" stroke="black" stroke-width="2" fill="none" />
<path d="M590.5511811023622,-118.11023622047244 L590.5511811023622,-236.2204724409449" stroke="black" stroke-width="2" fill="none" />
<path d="M826.7716535433071,-236.2204724409449 L1062.992125984252,-236.2204724409449" stroke="black" stroke-width="2" fill="none" />
<path d="M1062.992125984252,-236.2204724409449 L1062.992125984252,-118.11023622047244" stroke="black" stroke-width="2" fill="none" />
<path d="M1062.992125984252,-118.11023622047244 L826.7716535433071,-118.11023622047244" stroke="black" stroke-width="2" fill="none" />
<path d="M826.7716535433071,-118.11023622047244 L826.7716535433071,-236.2204724409449" stroke="black" stroke-width="2" fill="none" />
<path d="M1062.992125984252,-236.2204724409449 L1299.212598425197,-236.2204724409449" stroke="black" stroke-width="2" fill="none" />
<path d="M1299.212598425197,-236.2204724409449 L1299.212598425197,-118.11023622047244" stroke="black" stroke-width="2" fill="none" />
<path d="M1299.212598425197,-118.11023622047244 L1062.992125984252,-118.11023622047244" stroke="black" stroke-width="2" fill="none" />
<path d="M1062.992125984252,-118.11023622047244 L1062.992125984252,-236.2204724409449" stroke="black" stroke-width="2" fill="none" />
<path d="M1299.212598425197,-236.2204724409449 L1535.4330708661419,-236.2204724409449" stroke="black" stroke-width="2" fill="none" />
<path d="M1535.4330708661419,-236.2204724409449 L1535.4330708661419,-118.11023622047244" stroke="black" stroke-width="2" fill="none" />
<path d="M1535.4330708661419,-118.11023622047244 L1299.212598425197,-118.11023622047244" stroke="black" stroke-width="2" fill="none" />
<path d="M1299.212598425197,-118.11023622047244 L1299.212598425197,-236.2204724409449" stroke="black" stroke-width="2" fill="none" />
<path d="M1535.4330708661419,-236.2204724409449 L1771.6535433070867,-236.2204724409449" stroke="black" stroke-width="2" fill="none" />
<path d="M1771.6535433070867,-236.2204724409449 L1771.6535433070867,-118.11023622047244" stroke="black" stroke-width="2" fill="none" />
<path d="M1771.6535433070867,-118.11023622047244 L1535.4330708661419,-118.11023622047244" stroke="black" stroke-width="2" fill="none" />
<path d="M1535.4330708661419,-118.11023622047244 L1535.4330708661419,-236.2204724409449" stroke="black" stroke-width="2" fill="none" />
<path d="M1771.6535433070867,-236.2204724409449 L2007.8740157480318,-236.2204724409449" stroke="black" stroke-width="2" fill="none" />
<path d="M2007.8740157480318,-236.2204724409449 L2007.8740157480318,-118.11023622047244" stroke="black" stroke-width="2" fill="none" />
<path d="M2007.8740157480318,-118.11023622047244 L1771.6535433070867,-118.11023622047244" stroke="black" stroke-width="2" fill="none" />
<path d="M1771.6535433070867,-118.11023622047244 L1771.6535433070867,-236.2204724409449" stroke="black" stroke-width="2" fill="none" />
<path d="M2007.8740157480318,-236.2204724409449 L2244.0944881889764,-236.2204724409449" stroke="black" stroke-width="2" fill="none" />
<path d="M2244.0944881889764,-236.2204724409449 L2244.0944881889764,-118.11023622047244" stroke="black" stroke-width="2" fill="none" />
<path d="M2244.0944881889764,-118.11023622047244 L2007.8740157480318,-118.11023622047244" stroke="black" stroke-width="2" fill="none" />
<path d="M2007.8740157480318,-118.11023622047244 L2007.8740157480318,-236.2204724409449" stroke="black" stroke-width="2" fill="none" />
<path d="M2244.0944881889764,-236.2204724409449 L2480.3149606299216,-236.2204724409449" stroke="black" stroke-width="2" fill="none" />
<path d="M2480.3149606299216,-236.2204724409449 L2480.3149606299216,-118.11023622047244" stroke="black" stroke-width="2" fill="none" />
<path d="M2480.3149606299216,-118.11023622047244 L2244.0944881889764,-118.11023622047244" stroke="black" stroke-width="2" fill="none" />
<path d="M2244.0944881889764,-118.11023622047244 L2244.0944881889764,-236.2204724409449" stroke="black" stroke-width="2" fill="none" />
<path d="M2480.3149606299216,-236.2204724409449 L2716.535433070866,-236.2204724409449" stroke="black" stroke-width="2" fill="none" />
<path d="M2716.535433070866,-236.2204724409449 L2716.535433070866,-118.11023622047244" stroke="black" stroke-width="2" fill="none" />
<path d="M2716.535433070866,-118.11023622047244 L2480.3149606299216,-118.11023622047244" stroke="black" stroke-width="2" fill="none" />
<path d="M2480.3149606299216,-118.11023622047244 L2480.3149606299216,-236.2204724409449" stroke="black" stroke-width="2" fill="none" />
<path d="M2716.535433070866,-236.2204724409449 L2952.7559055118113,-236.2204724409449" stroke="black" stroke-width="2" fill="none" />
<path d="M2952.7559055118113,-236.2204724409449 L2952.7559055118113,-118.11023622047244" stroke="black" stroke-width="2" fill="none" />
<path d="M2952.7559055118113,-118.11023622047244 L2716.535433070866,-118.11023622047244" stroke="black" stroke-width="2" fill="none" />
<path d="M2716.535433070866,-118.11023622047244 L2716.535433070866,-236.2204724409449" stroke="black" stroke-width="2" fill="none" />
<path d="M2952.7559055118113,-236.2204724409449 L3188.976377952756,-236.2204724409449" stroke="black" stroke-width="2" fill="none" />
<path d="M3188.976377952756,-236.2204724409449 L3188.976377952756,-118.11023622047244" stroke="black" stroke-width="2" fill="none" />
<path d="M3188.976377952756,-118.11023622047244 L2952.7559055118113,-118.11023622047244" stroke="black" stroke-width="2" fill="none" />
<path d="M2952.7559055118113,-118.11023622047244 L2952.7559055118113,-236.2204724409449" stroke="black" stroke-width="2" fill="none" />
<path d="M3188.976377952756,-236.2204724409449 L3425.196850393701,-236.2204724409449" stroke="black" stroke-width="2" fill="none" />
<path d="M3425.196850393701,-236.2204724409449 L3425.196850393701,-118.11023622047244" stroke="black" stroke-width="2" fill="none" />
<path d="M3425.196850393701,-118.11023622047244 L3188.976377952756,-118.11023622047244" stroke="black" stroke-width="2" fill="none" />
<path d="M3188.976377952756,-118.11023622047244 L3188.976377952756,-236.2204724409449" stroke="black" stroke-width="2" fill="none" />
</svg>