<?xml version="1.0" encoding="UTF-8"?>
<svg xmlns="http://www.w3.org/2000/svg" xmlns:xlink="http://www.w3.org/1999/xlink"
     width="4500.0" height="6000.0" viewBox="0 -6000.0 4500.0 6000.0">
<defs>
</defs>
<text x="118.11023622047244" y="-5763.779527559055" font-size="100.0" dy="0em">EVA 6mm foam templates for Hammond 1590Y, pg 2</text>
<path d="M118.11023622047244,-5645.669291338583 L2579.527559055118,-5645.669291338583" stroke="black" stroke-width="2" fill="none" />
<path d="M2579.527559055118,-5645.669291338583 L2553.5433070866143,-4658.2677165354335" stroke="black" stroke-width="2" fill="none" />
<path d="M2553.5433070866143,-4658.2677165354335 L144.09448818897624,-4658.2677165354335" stroke="black" stroke-width="2" fill="none" />
<path d="M144.09448818897624,-4658.2677165354335 L118.11023622047229,-5645.669291338583" stroke="black" stroke-width="2" fill="none" />
<path d="M118.11023622047244,-4540.157480314961 L2579.527559055118,-4540.157480314961" stroke="black" stroke-width="2" fill="none" />
<path d="M2579.527559055118,-4540.157480314961 L2553.5433070866143,-3552.7559055118104" stroke="black" stroke-width="2" fill="none" />
<path d="M2553.5433070866143,-3552.7559055118113 L144.09448818897624,-3552.7559055118113" stroke="black" stroke-width="2" fill="none" />
<path d="M144.09448818897624,-3552.7559055118113 L118.11023622047229,-4540.157480314961" stroke="black" stroke-width="2" fill="none" />
<path d="M118.11023622047244,-3434.645669291339 L2527.5590551181103,-3434.645669291339" stroke="black" stroke-width="2" fill="none" />
<path d="M2527.5590551181103,-3434.645669291339 L2527.5590551181103,-1025.196850393701" stroke="black" stroke-width="2" fill="none" />
<path d="M2527.5590551181103,-1025.196850393701 L118.11023622047244,-1025.196850393701" stroke="black" stroke-width="2" fill="none" />
<path d="M118.11023622047244,-1025.196850393701 L118.11023622047244,-3434.645669291339" stroke="black" stroke-width="2" fill="none" />
<path d="M401.57480314960634,-3151.181102362205 L2244.0944881889764,-3151.181102362205" stroke="black" stroke-width="2" fill="none" />
<path d="M2244.0944881889764,-3151.181102362205 L2244.0944881889764,-1308.661417322835" stroke="black" stroke-width="2" fill="none" />
<path d="M2244.0944881889764,-1308.661417322835 L401.57480314960634,-1308.661417322835" stroke="black" stroke-width="2" fill="none" />
<path d="M401.57480314960634,-1308.661417322835 L401.57480314960634,-3151.181102362205" stroke="black" stroke-width="2" fill="none" />
<text x="118.11023622047244" y="-283.46456692913387" font-size="100.0" dy="0em">14cm Ruler</text>
<text x="3425.196850393701" y="-283.46456692913387" font-size="100.0" text-anchor="end" dy="0em">github.com/hammond-foam</text>
<path d="M118.11023622047244,-236.2204724409449 L354.33070866141736,-236.2204724409449" stroke="black" stroke-width="2" fill="none" />
<path d="M354.33070866141736,-236.2204724409449 L354.33070866141736,-118.11023622047244" stroke="black" stroke-width="2" fill="none" />
<path d="M354.33070866141736,-118.11023622047244 L118.11023622047244,-118.11023622047244" stroke="black" stroke-width="2" fill="none" />
<path d="M118.11023622047244,-118.11023622047244 L118.11023622047244,-236.2204724409449" stroke="black" stroke-width="2" fill="none" />
<path d="M354.33070866141736,-236.2204724409449 L590.5511811023622,-236.2204724409449" stroke="black" stroke-width="2" fill="none" />
<path d="M590.5511811023622,-236.2204724409449 L590.5511811023622,-118.11023622047244" stroke="black" stroke-width="2" fill="none" />
<path d="M590.5511811023622,-118.11023622047244 L354.33070866141736,-118.11023622047244" stroke="black" stroke-width="2" fill="none" />
<path d="M354.33070866141736,-118.11023622047244 L354.33070866141736,-236.2204724409449" stroke="black" stroke-width="2" fill="none" />
<path d="M590.5511811023622,-236.2204724409449 L826.7716535433071,-236.2204724409449" stroke="black" stroke-width="2" fill="none" />
<path d="M826.7716535433071,-236.2204724409449 L826.7716535433071,-118.11023622047244" stroke="black" stroke-width="2" fill="none" />
<path d="M826.7716535433071,-118.11023622047244 L590.5511811023622,-118.11023622047244" stroke="black" stroke-width="2" fill="none" />
<path d="M590.5511811023622,-118.11023622047244 L590.5511811023622,-236.2204724409449" stroke="black" stroke-width="2" fill="none" />
<path d="M826.7716535433071,-236.2204724409449 L1062.992125984252,-236.2204724409449" stroke="black" stroke-width="2" fill="none" />
<path d="M1062.992125984252,-236.2204724409449 L1062.992125984252,-118.11023622047244" stroke="black" stroke-width="2" fill="none" />
<path d="M1062.992125984252,-118.11023622047244 L826.7716535433071,-118.11023622047244" stroke="black" stroke-width="2" fill="none" />
<path d="M826.7716535433071,-118.11023622047244 L826.7716535433071,-236.2204724409449" stroke="black" stroke-width="2" fill="none" />
<path d="M1062.992125984252,-236.2204724409449 L1299.212598425197,-236.2204724409449" stroke="black" stroke-width="2" fill="none" />
<path d="M1299.212598425197,-236.2204724409449 L1299.212598425197,-118.11023622047244" stroke="black" stroke-width="2" fill="none" />
<path d="M1299.212598425197,-118.11023622047244 L1062.992125984252,-118.11023622047244" stroke="black" stroke-width="2" fill="none" />
<path d="M1062.992125984252,-118.11023622047244 L1062.992125984252,-236.2204724409449" stroke="black" stroke-width="2" fill="none" />
<path d="M1299.212598425197,-236.2204724409449 L1535.4330708661419,-236.2204724409449" stroke="black" stroke-width="2" fill="none" />
<path d="M1535.4330708661419,-236.2204724409449 L1535.4330708661419,-118.11023622047244" stroke="black" stroke-width="2" fill="none" />
<path d="M1535.4330708661419,-118.11023622047244 L1299.212598425197,-118.11023622047244" stroke="black" stroke-width="2" fill="none" />
<path d="M1299.212598425197,-118.11023622047244 L1299.212598425197,-236.2204724409449" stroke="black" stroke-width="2" fill="none" />
<path d="M1535.4330708661419,-236.2204724409449 L1771.6535433070867,-236.2204724409449" stroke="black" stroke-width="2" fill="none" />
<path d="M1771.6535433070867,-236.2204724409449 L1771.6535433070867,-118.11023622047244" stroke="black" stroke-width="2" fill="none" />
<path d="M1771.6535433070867,-118.11023622047244 L1535.4330708661419,-118.11023622047244" stroke="black" stroke-width="2" fill="none" />
<path d="M1535.4330708661419,-118.11023622047244 L1535.4330708661419,-236.2204724409449" stroke="black" stroke-width="2" fill="none" />
<path d="M1771.6535433070867,-236.2204724409449 L2007.8740157480318,-236.2204724409449" stroke="black" stroke-width="2" fill="none" />
<path d="M2007.8740157480318,-236.2204724409449 L2007.8740157480318,-118.11023622047244" stroke="black" stroke-width="2" fill="none" />
<path d="M2007.8740157480318,-118.11023622047244 L1771.6535433070867,-118.11023622047244" stroke="black" stroke-width="2" fill="none" />
<path d="M1771.6535433070867,-118.11023622047244 L1771.6535433070867,-236.2204724409449" stroke="black" stroke-width="2" fill="none" />
<path d="M2007.8740157480318,-236.2204724409449 L2244.0944881889764,-236.2204724409449" stroke="black" stroke-width="2" fill="none" />
<path d="M2244.0944881889764,-236.2204724409449 L2244.0944881889764,-118.11023622047244" stroke="black" stroke-width="2" fill="none" />
<path d="M2244.0944881889764,-118.11023622047244 L2007.8740157480318,-118.11023622047244" stroke="black" stroke-width="2" fill="none" />
<path d="M2007.8740157480318,-118.11023622047244 L2007.8740157480318,-236.2204724409449" stroke="black" stroke-width="2" fill="none" />
<path d="M2244.0944881889764,-236.2204724409449 L2480.3149606299216,-236.2204724409449" stroke="black" stroke-width="2" fill="none" />
<path d="M2480.3149606299216,-236.2204724409449 L2480.3149606299216,-118.11023622047244" stroke="black" stroke-width="2" fill="none" />
<path d="M2480.3149606299216,-118.11023622047244 L2244.0944881889764,-118.11023622047244" stroke="black" stroke-width="2" fill="none" />
<path d="M2244.0944881889764,-118.11023622047244 L2244.0944881889764,-236.2204724409449" stroke="black" stroke-width="2" fill="none" />
<path d="M2480.3149606299216,-236.2204724409449 L2716.535433070866,-236.2204724409449" stroke="black" stroke-width="2" fill="none" />
<path d="M2716.535433070866,-236.2204724409449 L2716.535433070866,-118.11023622047244" stroke="black" stroke-width="2" fill="none" />
<path d="M2716.535433070866,-118.11023622047244 L2480.3149606299216,-118.11023622047244" stroke="black" stroke-width="2" fill="none" />
<path d="M2480.3149606299216,-118.11023622047244 L2480.3149606299216,-236.2204724409449" stroke="black" stroke-width="2" fill="none" />
<path d="M2716.535433070866,-236.2204724409449 L2952.7559055118113,-236.2204724409449" stroke="black" stroke-width="2" fill="none" />
<path d="M2952.7559055118113,-236.2204724409449 L2952.7559055118113,-118.11023622047244" stroke="black" stroke-width="2" fill="none" />
<path d="M2952.7559055118113,-118.11023622047244 L2716.535433070866,-118.11023622047244" stroke="black" stroke-width="2" fill="none" />
<path d="M2716.535433070866,-118.11023622047244 L2716.535433070866,-236.2204724409449" stroke="black" stroke-width="2" fill="none" />
<path d="M2952.7559055118113,-236.2204724409449 L3188.976377952756,-236.2204724409449" stroke="black" stroke-width="2" fill="none" />
<path d="M3188.976377952756,-236.2204724409449 L3188.976377952756,-118.11023622047244" stroke="black" stroke-width="2" fill="none" />
<path d="M3188.976377952756,-118.11023622047244 L2952.7559055118113,-118.11023622047244" stroke="black" stroke-width="2" fill="none" />
<path d="M2952.7559055118113,-118.11023622047244 L2952.7559055118113,-236.2204724409449" stroke="black" stroke-width="2" fill="none" />
<path d="M3188.976377952756,-236.2204724409449 L3425.196850393701,-236.2204724409449" stroke="black" stroke-width="2" fill="none" />
<path d="M3425.196850393701,-236.2204724409449 L3425.196850393701,-118.11023622047244" stroke="black" stroke-width="2" fill="none" />
<path d="M3425.196850393701,-118.11023622047244 L3188.976377952756,-118.11023622047244" stroke="black" stroke-width="2" fill="none" />
<path d="M3188.976377952756,-118.11023622047244 L3188.976377952756,-236.2204724409449" stroke="black" stroke-width="2" fill="none" />
</svg>