<?xml version="1.0" encoding="UTF-8"?>
<svg xmlns="http://www.w3.org/2000/svg" xmlns:xlink="http://www.w3.org/1999/xlink"
     width="4500.0" height="6000.0" viewBox="0 -6000.0 4500.0 6000.0">
<defs>
</defs>
<text x="118.11023622047244" y="-5763.779527559055" font-size="100.0" dy="0em">EVA 6mm foam templates for Hammond 1590A (Tayda clone), pg 1</text>
<path d="M496.0629921259843,-5645.669291338583 L2206.2992125984256,-5645.669291338583" stroke="black" stroke-width="2" fill="none" />
<path d="M2206.2992125984256,-5645.669291338583 L2206.2992125984256,-5267.716535433071" stroke="black" stroke-width="2" fill="none" />
<path d="M2206.2992125984256,-5267.716535433071 L2584.2519685039374,-5267.716535433071" stroke="black" stroke-width="2" fill="none" />
<path d="M2584.2519685039374,-5267.716535433071 L2584.2519685039374,-4835.433070866142" stroke="black" stroke-width="2" fill="none" />
<path d="M2584.2519685039374,-4835.433070866142 L2206.2992125984256,-4835.433070866142" stroke="black" stroke-width="2" fill="none" />
<path d="M2206.2992125984256,-4835.433070866142 L2206.2992125984256,-4457.48031496063" stroke="black" stroke-width="2" fill="none" />
<path d="M2206.2992125984256,-4457.48031496063 L496.0629921259843,-4457.48031496063" stroke="black" stroke-width="2" fill="none" />
<path d="M496.0629921259843,-4457.48031496063 L496.0629921259843,-4835.433070866142" stroke="black" stroke-width="2" fill="none" />
<path d="M496.0629921259843,-4835.433070866142 L118.11023622047244,-4835.433070866142" stroke="black" stroke-width="2" fill="none" />
<path d="M118.11023622047244,-4835.433070866142 L118.11023622047244,-5267.716535433071" stroke="black" stroke-width="2" fill="none" />
<path d="M118.11023622047244,-5267.716535433071 L496.0629921259843,-5267.716535433071" stroke="black" stroke-width="2" fill="none" />
<path d="M496.0629921259843,-5267.716535433071 L496.0629921259843,-5645.669291338583" stroke="black" stroke-width="2" fill="none" />
<path d="M118.11023622047244,-4339.370078740158 L1306.2992125984254,-4339.370078740158" stroke="black" stroke-width="2" fill="none" />
<path d="M1306.2992125984254,-4339.370078740158 L1294.488188976378,-3604.7244094488187" stroke="black" stroke-width="2" fill="none" />
<path d="M1294.488188976378,-3604.7244094488187 L129.92125984251967,-3604.7244094488187" stroke="black" stroke-width="2" fill="none" />
<path d="M129.92125984251967,-3604.7244094488187 L118.11023622047244,-4339.370078740158" stroke="black" stroke-width="2" fill="none" />
<path d="M118.11023622047244,-3486.6141732283468 L1306.2992125984254,-3486.6141732283468" stroke="black" stroke-width="2" fill="none" />
<path d="M1306.2992125984254,-3486.6141732283468 L1294.488188976378,-2751.968503937008" stroke="black" stroke-width="2" fill="none" />
<path d="M1294.488188976378,-2751.968503937008 L129.92125984251967,-2751.968503937008" stroke="black" stroke-width="2" fill="none" />
<path d="M129.92125984251967,-2751.968503937008 L118.11023622047244,-3486.6141732283468" stroke="black" stroke-width="2" fill="none" />
<path d="M118.11023622047244,-2633.8582677165355 L2584.2519685039374,-2633.8582677165355" stroke="black" stroke-width="2" fill="none" />
<path d="M2584.2519685039374,-2633.8582677165355 L2572.44094488189,-1899.2125984251973" stroke="black" stroke-width="2" fill="none" />
<path d="M2572.44094488189,-1899.2125984251973 L129.92125984251967,-1899.2125984251973" stroke="black" stroke-width="2" fill="none" />
<path d="M129.92125984251967,-1899.2125984251973 L118.11023622047244,-2633.8582677165355" stroke="black" stroke-width="2" fill="none" />
<path d="M118.11023622047244,-1781.1023622047246 L2584.2519685039374,-1781.1023622047246" stroke="black" stroke-width="2" fill="none" />
<path d="M2584.2519685039374,-1781.1023622047246 L2572.44094488189,-1046.456692913386" stroke="black" stroke-width="2" fill="none" />
<path d="M2572.44094488189,-1046.4566929133862 L129.92125984251967,-1046.4566929133862" stroke="black" stroke-width="2" fill="none" />
<path d="M129.92125984251967,-1046.4566929133862 L118.11023622047244,-1781.1023622047246" stroke="black" stroke-width="2" fill="none" />
<text x="118.11023622047244" y="-283.46456692913387" font-size="100.0" dy="0em">14cm Ruler</text>
<text x="3425.196850393701" y="-283.46456692913387" font-size="100.0" text-anchor="end" dy="0em">github.com/hammond-foam</text>
<path d="M118.11023622047244,-236.2204724409449 L354.33070866141736,-236.2204724409449" stroke="black" stroke-width="2" fill="none" />
<path d="M354.33070866141736,-236.2204724409449 L354.33070866141736,-118.11023622047244" stroke="black" stroke-width="2" fill="none" />
<path d="M354.33070866141736,-118.11023622047244 L118.11023622047244,-118.11023622047244" stroke="black" stroke-width="2" fill="none" />
<path d="M118.11023622047244,-118.11023622047244 L118.11023622047244,-236.2204724409449" stroke="black" stroke-width="2" fill="none" />
<path d="M354.33070866141736,-236.2204724409449 L590.5511811023622,-236.2204724409449" stroke="black" stroke-width="2" fill="none" />
<path d="M590.5511811023622,-236.2204724409449 L590.5511811023622,-118.11023622047244" stroke="black" stroke-width="2" fill="none" />
<path d="M590.5511811023622,-118.11023622047244 L354.33070866141736,-118.11023622047244" stroke="black" stroke-width="2" fill="none" />
<path d="M354.33070866141736,-118.11023622047244 L354.33070866141736,-236.2204724409449" stroke="black" stroke-width="2" fill="none" />
<path d="M590.5511811023622,-236.2204724409449 L826.7716535433071,-236.2204724409449" stroke="black" stroke-width="2" fill="none" />
<path d="M826.7716535433071,-236.2204724409449 L826.7716535433071,-118.11023622047244" stroke="black" stroke-width="2" fill="none" />
<path d="M826.7716535433071,-118.11023622047244 L590.5511811023622,-118.11023622047244" stroke="black" stroke-width="2" fill="none" />
<path d="M590.5511811023622,-118.11023622047244 L590.5511811023622,-236.2204724409449" stroke="black" stroke-width="2" fill="none" />
<path d="M826.7716535433071,-236.2204724409449 L1062.992125984252,-236.2204724409449" stroke="black" stroke-width="2" fill="none" />
<path d="M1062.992125984252,-236.2204724409449 L1062.992125984252,-118.11023622047244" stroke="black" stroke-width="2" fill="none" />
<path d="M1062.992125984252,-118.11023622047244 L826.7716535433071,-118.11023622047244" stroke="black" stroke-width="2" fill="none" />
<path d="M826.7716535433071,-118.11023622047244 L826.7716535433071,-236.2204724409449" stroke="black" stroke-width="2" fill="none" />
<path d="M1062.992125984252,-236.2204724409449 L1299.212598425197,-236.2204724409449" stroke="black" stroke-width="2" fill="none" />
<path d="M1299.212598425197,-236.2204724409449 L1299.212598425197,-118.11023622047244" stroke="black" stroke-width="2" fill="none" />
<path d="M1299.212598425197,-118.11023622047244 L1062.992125984252,-118.11023622047244" stroke="black" stroke-width="2" fill="none" />
<path d="M1062.992125984252,-118.11023622047244 L1062.992125984252,-236.2204724409449" stroke="black" stroke-width="2" fill="none" />
<path d="M1299.212598425197,-236.2204724409449 L1535.4330708661419,-236.2204724409449" stroke="black" stroke-width="2" fill="none" />
<path d="M1535.4330708661419,-236.2204724409449 L1535.4330708661419,-118.11023622047244" stroke="black" stroke-width="2" fill="none" />
<path d="M1535.4330708661419,-118.11023622047244 L1299.212598425197,-118.11023622047244" stroke="black" stroke-width="2" fill="none" />
<path d="M1299.212598425197,-118.11023622047244 L1299.212598425197,-236.2204724409449" stroke="black" stroke-width="2" fill="none" />
<path d="M1535.4330708661419,-236.2204724409449 L1771.6535433070867,-236.2204724409449" stroke="black" stroke-width="2" fill="none" />
<path d="M1771.6535433070867,-236.2204724409449 L1771.6535433070867,-118.11023622047244" stroke="black" stroke-width="2" fill="none" />
<path d="M1771.6535433070867,-118.11023622047244 L1535.4330708661419,-118.11023622047244" stroke="black" stroke-width="2" fill="none" />
<path d="M1535.4330708661419,-118.11023622047244 L1535.4330708661419,-236.2204724409449" stroke="black" stroke-width="2" fill="none" />
<path d="M1771.6535433070867,-236.2204724409449 L2007.8740157480318,-236.2204724409449" stroke="black" stroke-width="2" fill="none" />
<path d="M2007.8740157480318,-236.2204724409449 L2007.8740157480318,-118.11023622047244" stroke="black" stroke-width="2" fill="none" />
<path d="M2007.8740157480318,-118.11023622047244 L1771.6535433070867,-118.11023622047244" stroke="black" stroke-width="2" fill="none" />
<path d="M1771.6535433070867,-118.11023622047244 L1771.6535433070867,-236.2204724409449" stroke="black" stroke-width="2" fill="none" />
<path d="M2007.8740157480318,-236.2204724409449 L2244.0944881889764,-236.2204724409449" stroke="black" stroke-width="2" fill="none" />
<path d="M2244.0944881889764,-236.2204724409449 L2244.0944881889764,-118.11023622047244" stroke="black" stroke-width="2" fill="none" />
<path d="M2244.0944881889764,-118.11023622047244 L2007.8740157480318,-118.11023622047244" stroke="black" stroke-width="2" fill="none" />
<path d="M2007.8740157480318,-118.11023622047244 L2007.8740157480318,-236.2204724409449" stroke="black" stroke-width="2" fill="none" />
<path d="M2244.0944881889764,-236.2204724409449 L2480.3149606299216,-236.2204724409449" stroke="black" stroke-width="2" fill="none" />
<path d="M2480.3149606299216,-236.2204724409449 L2480.3149606299216,-118.11023622047244" stroke="black" stroke-width="2" fill="none" />
<path d="M2480.3149606299216,-118.11023622047244 L2244.0944881889764,-118.11023622047244" stroke="black" stroke-width="2" fill="none" />
<path d="M2244.0944881889764,-118.11023622047244 L2244.0944881889764,-236.2204724409449" stroke="black" stroke-width="2" fill="none" />
<path d="M2480.3149606299216,-236.2204724409449 L2716.535433070866,-236.2204724409449" stroke="black" stroke-width="2" fill="none" />
<path d="M2716.535433070866,-236.2204724409449 L2716.535433070866,-118.11023622047244" stroke="black" stroke-width="2" fill="none" />
<path d="M2716.535433070866,-118.11023622047244 L2480.3149606299216,-118.11023622047244" stroke="black" stroke-width="2" fill="none" />
<path d="M2480.3149606299216,-118.11023622047244 L2480.3149606299216,-236.2204724409449" stroke="black" stroke-width="2" fill="none" />
<path d="M2716.535433070866,-236.2204724409449 L2952.7559055118113,-236.2204724409449" stroke="black" stroke-width="2" fill="none" />
<path d="M2952.7559055118113,-236.2204724409449 L2952.7559055118113,-118.11023622047244" stroke="black" stroke-width="2" fill="none" />
<path d="M2952.7559055118113,-118.11023622047244 L2716.535433070866,-118.11023622047244" stroke="black" stroke-width="2" fill="none" />
<path d="M2716.535433070866,-118.11023622047244 L2716.535433070866,-236.2204724409449" stroke="black" stroke-width="2" fill="none" />
<path d="M2952.7559055118113,-236.2204724409449 L3188.976377952756,-236.2204724409449" stroke="black" stroke-width="2" fill="none" />
<path d="M3188.976377952756,-236.2204724409449 L3188.976377952756,-118.11023622047244" stroke="black" stroke-width="2" fill="none" />
<path d="M3188.976377952756,-118.11023622047244 L2952.7559055118113,-118.11023622047244" stroke="black" stroke-width="2" fill="none" />
<path d="M2952.7559055118113,-118.11023622047244 L2952.7559055118113,-236.2204724409449" stroke="black" stroke-width="2" fill="none" />
<path d="M3188.976377952756,-236.2204724409449 L3425.196850393701,-236.2204724409449" stroke="black" stroke-width="2" fill="none" />
<path d="M3425.196850393701,-236.2204724409449 L3425.196850393701,-118.11023622047244" stroke="black" stroke-width="2" fill="none" />
<path d="M3425.196850393701,-118.11023622047244 L3188.976377952756,-118.11023622047244" stroke="black" stroke-width="2" fill="none" />
<path d="M3188.976377952756,-118.11023622047244 L3188.976377952756,-236.2204724409449" stroke="black" stroke-width="2" fill="none" />
</svg>