<?xml version="1.0" encoding="UTF-8"?>
<svg xmlns="http://www.w3.org/2000/svg" xmlns:xlink="http://www.w3.org/1999/xlink"
     width="4500.0" height="6000.0" viewBox="0 -6000.0 4500.0 6000.0">
<defs>
</defs>
<text x="118.11023622047244" y="-5763.779527559055" font-size="100.0" dy="0em">EVA 6mm foam templates for Hammond 1590B (Tayda clone), pg 2</text>
<path d="M118.11023622047244,-5645.669291338583 L3009.4488188976384,-5645.669291338583" stroke="black" stroke-width="2" fill="none" />
<path d="M3009.4488188976384,-5645.669291338583 L3009.4488188976384,-3975.590551181103" stroke="black" stroke-width="2" fill="none" />
<path d="M3009.4488188976384,-3975.590551181103 L118.11023622047244,-3975.590551181103" stroke="black" stroke-width="2" fill="none" />
<path d="M118.11023622047244,-3975.590551181103 L118.11023622047244,-5645.669291338583" stroke="black" stroke-width="2" fill="none" />
<path d="M401.57480314960634,-5362.204724409449 L2725.9842519685044,-5362.204724409449" stroke="black" stroke-width="2" fill="none" />
<path d="M2725.9842519685044,-5362.204724409449 L2725.9842519685044,-4259.055118110236" stroke="black" stroke-width="2" fill="none" />
<path d="M2725.9842519685044,-4259.055118110236 L401.57480314960634,-4259.055118110236" stroke="black" stroke-width="2" fill="none" />
<path d="M401.57480314960634,-4259.055118110236 L401.57480314960634,-5362.204724409449" stroke="black" stroke-width="2" fill="none" />
<path d="M118.11023622047244,-3857.4803149606305 L3009.4488188976384,-3857.4803149606305" stroke="black" stroke-width="2" fill="none" />
<path d="M3009.4488188976384,-3857.4803149606305 L3009.4488188976384,-2187.40157480315" stroke="black" stroke-width="2" fill="none" />
<path d="M3009.4488188976384,-2187.4015748031497 L118.11023622047244,-2187.4015748031497" stroke="black" stroke-width="2" fill="none" />
<path d="M118.11023622047244,-2187.4015748031497 L118.11023622047244,-3857.4803149606305" stroke="black" stroke-width="2" fill="none" />
<path d="M401.57480314960634,-3574.0157480314965 L2725.9842519685044,-3574.0157480314965" stroke="black" stroke-width="2" fill="none" />
<path d="M2725.9842519685044,-3574.0157480314965 L2725.9842519685044,-2470.8661417322837" stroke="black" stroke-width="2" fill="none" />
<path d="M2725.9842519685044,-2470.8661417322833 L401.57480314960634,-2470.8661417322833" stroke="black" stroke-width="2" fill="none" />
<path d="M401.57480314960634,-2470.8661417322833 L401.57480314960634,-3574.0157480314965" stroke="black" stroke-width="2" fill="none" />
<text x="118.11023622047244" y="-283.46456692913387" font-size="100.0" dy="0em">14cm Ruler</text>
<text x="3425.196850393701" y="-283.46456692913387" font-size="100.0" text-anchor="end" dy="0em">github.com/hammond-foam</text>
<path d="M118.11023622047244,-236.2204724409449 L354.33070866141736,-236.2204724409449" stroke="black" stroke-width="2" fill="none" />
<path d="M354.33070866141736,-236.2204724409449 L354.33070866141736,-118.11023622047244" stroke="black" stroke-width="2" fill="none" />
<path d="M354.33070866141736,-118.11023622047244 L118.11023622047244,-118.11023622047244" stroke="black" stroke-width="2" fill="none" />
<path d="M118.11023622047244,-118.11023622047244 L118.11023622047244,-236.2204724409449" stroke="black" stroke-width="2" fill="none" />
<path d="M354.33070866141736,-236.2204724409449 L590.5511811023622,-236.2204724409449" stroke="black" stroke-width="2" fill="none" />
<path d="M590.5511811023622,-236.2204724409449 L590.5511811023622,-118.11023622047244" stroke="black" stroke-width="2" fill="none" />
<path d="M590.5511811023622,-118.11023622047244 L354.33070866141736,-118.11023622047244" stroke="black" stroke-width="2" fill="none" />
<path d="M354.33070866141736,-118.11023622047244 L354.33070866141736,-236.2204724409449" stroke="black" stroke-width="2" fill="none" />
<path d="M590.5511811023622,-236.2204724409449 L826.7716535433071,-236.2204724409449" stroke="black" stroke-width="2" fill="none" />
<path d="M826.7716535433071,-236.2204724409449 L826.7716535433071,-118.11023622047244" stroke="black" stroke-width="2" fill="none" />
<path d="M826.7716535433071,-118.11023622047244 L590.5511811023622,-118.11023622047244" stroke="black" stroke-width="2" fill="none" />
<path d="M590.5511811023622,-118.11023622047244 L590.5511811023622,-236.2204724409449" stroke="black" stroke-width="2" fill="none" />
<path d="M826.7716535433071,-236.2204724409449 L1062.992125984252,-236.2204724409449" stroke="black" stroke-width="2" fill="none" />
<path d="M1062.992125984252,-236.2204724409449 L1062.992125984252,-118.11023622047244" stroke="black" stroke-width="2" fill="none" />
<path d="M1062.992125984252,-118.11023622047244 L826.7716535433071,-118.11023622047244" stroke="black" stroke-width="2" fill="none" />
<path d="M826.7716535433071,-118.11023622047244 L826.7716535433071,-236.2204724409449" stroke="black" stroke-width="2" fill="none" />
<path d="M1062.992125984252,-236.2204724409449 L1299.212598425197,-236.2204724409449" stroke="black" stroke-width="2" fill="none" />
<path d="M1299.212598425197,-236.2204724409449 L1299.212598425197,-118.11023622047244" stroke="black" stroke-width="2" fill="none" />
<path d="M1299.212598425197,-118.11023622047244 L1062.992125984252,-118.11023622047244" stroke="black" stroke-width="2" fill="none" />
<path d="M1062.992125984252,-118.11023622047244 L1062.992125984252,-236.2204724409449" stroke="black" stroke-width="2" fill="none" />
<path d="M1299.212598425197,-236.2204724409449 L1535.4330708661419,-236.2204724409449" stroke="black" stroke-width="2" fill="none" />
<path d="M1535.4330708661419,-236.2204724409449 L1535.4330708661419,-118.11023622047244" stroke="black" stroke-width="2" fill="none" />
<path d="M1535.4330708661419,-118.11023622047244 L1299.212598425197,-118.11023622047244" stroke="black" stroke-width="2" fill="none" />
<path d="M1299.212598425197,-118.11023622047244 L1299.212598425197,-236.2204724409449" stroke="black" stroke-width="2" fill="none" />
<path d="M1535.4330708661419,-236.2204724409449 L1771.6535433070867,-236.2204724409449" stroke="black" stroke-width="2" fill="none" />
<path d="M1771.6535433070867,-236.2204724409449 L1771.6535433070867,-118.11023622047244" stroke="black" stroke-width="2" fill="none" />
<path d="M1771.6535433070867,-118.11023622047244 L1535.4330708661419,-118.11023622047244" stroke="black" stroke-width="2" fill="none" />
<path d="M1535.4330708661419,-118.11023622047244 L1535.4330708661419,-236.2204724409449" stroke="black" stroke-width="2" fill="none" />
<path d="M1771.6535433070867,-236.2204724409449 L2007.8740157480318,-236.2204724409449" stroke="black" stroke-width="2" fill="none" />
<path d="M2007.8740157480318,-236.2204724409449 L2007.8740157480318,-118.11023622047244" stroke="black" stroke-width="2" fill="none" />
<path d="M2007.8740157480318,-118.11023622047244 L1771.6535433070867,-118.11023622047244" stroke="black" stroke-width="2" fill="none" />
<path d="M1771.6535433070867,-118.11023622047244 L1771.6535433070867,-236.2204724409449" stroke="black" stroke-width="2" fill="none" />
<path d="M2007.8740157480318,-236.2204724409449 L2244.0944881889764,-236.2204724409449" stroke="black" stroke-width="2" fill="none" />
<path d="M2244.0944881889764,-236.2204724409449 L2244.0944881889764,-118.11023622047244" stroke="black" stroke-width="2" fill="none" />
<path d="M2244.0944881889764,-118.11023622047244 L2007.8740157480318,-118.11023622047244" stroke="black" stroke-width="2" fill="none" />
<path d="M2007.8740157480318,-118.11023622047244 L2007.8740157480318,-236.2204724409449" stroke="black" stroke-width="2" fill="none" />
<path d="M2244.0944881889764,-236.2204724409449 L2480.3149606299216,-236.2204724409449" stroke="black" stroke-width="2" fill="none" />
<path d="M2480.3149606299216,-236.2204724409449 L2480.3149606299216,-118.11023622047244" stroke="black" stroke-width="2" fill="none" />
<path d="M2480.3149606299216,-118.11023622047244 L2244.0944881889764,-118.11023622047244" stroke="black" stroke-width="2" fill="none" />
<path d="M2244.0944881889764,-118.11023622047244 L2244.0944881889764,-236.2204724409449" stroke="black" stroke-width="2" fill="none" />
<path d="M2480.3149606299216,-236.2204724409449 L2716.535433070866,-236.2204724409449" stroke="black" stroke-width="2" fill="none" />
<path d="M2716.535433070866,-236.2204724409449 L2716.535433070866,-118.11023622047244" stroke="black" stroke-width="2" fill="none" />
<path d="M2716.535433070866,-118.11023622047244 L2480.3149606299216,-118.11023622047244" stroke="black" stroke-width="2" fill="none" />
<path d="M2480.3149606299216,-118.11023622047244 L2480.3149606299216,-236.2204724409449" stroke="black" stroke-width="2" fill="none" />
<path d="M2716.535433070866,-236.2204724409449 L2952.7559055118113,-236.2204724409449" stroke="black" stroke-width="2" fill="none" />
<path d="M2952.7559055118113,-236.2204724409449 L2952.7559055118113,-118.11023622047244" stroke="black" stroke-width="2" fill="none" />
<path d="M2952.7559055118113,-118.11023622047244 L2716.535433070866,-118.11023622047244" stroke="black" stroke-width="2" fill="none" />
<path d="M2716.535433070866,-118.11023622047244 L2716.535433070866,-236.2204724409449" stroke="black" stroke-width="2" fill="none" />
<path d="M2952.7559055118113,-236.2204724409449 L3188.976377952756,-236.2204724409449" stroke="black" stroke-width="2" fill="none" />
<path d="M3188.976377952756,-236.2204724409449 L3188.976377952756,-118.11023622047244" stroke="black" stroke-width="2" fill="none" />
<path d="M3188.976377952756,-118.11023622047244 L2952.7559055118113,-118.11023622047244" stroke="black" stroke-width="2" fill="none" />
<path d="M2952.7559055118113,-118.11023622047244 L2952.7559055118113,-236.2204724409449" stroke="black" stroke-width="2" fill="none" />
<path d="M3188.976377952756,-236.2204724409449 L3425.196850393701,-236.2204724409449" stroke="black" stroke-width="2" fill="none" />
<path d="M3425.196850393701,-236.2204724409449 L3425.196850393701,-118.11023622047244" stroke="black" stroke-width="2" fill="none" />
<path d="M3425.196850393701,-118.11023622047244 L3188.976377952756,-118.11023622047244" stroke="black" stroke-width="2" fill="none" />
<path d="M3188.976377952756,-118.11023622047244 L3188.976377952756,-236.2204724409449" stroke="black" stroke-width="2" fill="none" />
</svg>