<?xml version="1.0" encoding="UTF-8"?>
<svg xmlns="http://www.w3.org/2000/svg" xmlns:xlink="http://www.w3.org/1999/xlink"
     width="4500.0" height="6000.0" viewBox="0 -6000.0 4500.0 6000.0">
<defs>
</defs>
<text x="118.11023622047244" y="-5763.779527559055" font-size="100.0" dy="0em">EVA 6mm foam templates for Hammond 1590BB, pg 1</text>
<path d="M496.0629921259843,-5645.669291338583 L2855.905511811024,-5645.669291338583" stroke="black" stroke-width="2" fill="none" />
<path d="M2855.905511811024,-5645.669291338583 L2855.905511811024,-5267.716535433071" stroke="black" stroke-width="2" fill="none" />
<path d="M2855.905511811024,-5267.716535433071 L3233.8582677165355,-5267.716535433071" stroke="black" stroke-width="2" fill="none" />
<path d="M3233.8582677165355,-5267.716535433071 L3233.8582677165355,-3512.5984251968507" stroke="black" stroke-width="2" fill="none" />
<path d="M3233.8582677165355,-3512.5984251968507 L2855.905511811024,-3512.5984251968507" stroke="black" stroke-width="2" fill="none" />
<path d="M2855.905511811024,-3512.5984251968507 L2855.905511811024,-3134.6456692913384" stroke="black" stroke-width="2" fill="none" />
<path d="M2855.905511811024,-3134.6456692913384 L496.0629921259843,-3134.6456692913384" stroke="black" stroke-width="2" fill="none" />
<path d="M496.0629921259843,-3134.6456692913384 L496.0629921259843,-3512.5984251968507" stroke="black" stroke-width="2" fill="none" />
<path d="M496.0629921259843,-3512.5984251968507 L118.11023622047244,-3512.5984251968507" stroke="black" stroke-width="2" fill="none" />
<path d="M118.11023622047244,-3512.5984251968507 L118.11023622047244,-5267.716535433071" stroke="black" stroke-width="2" fill="none" />
<path d="M118.11023622047244,-5267.716535433071 L496.0629921259843,-5267.716535433071" stroke="black" stroke-width="2" fill="none" />
<path d="M496.0629921259843,-5267.716535433071 L496.0629921259843,-5645.669291338583" stroke="black" stroke-width="2" fill="none" />
<path d="M118.11023622047244,-3016.535433070866 L2629.1338582677167,-3016.535433070866" stroke="black" stroke-width="2" fill="none" />
<path d="M2629.1338582677167,-3016.535433070866 L2596.0629921259842,-2211.0236220472443" stroke="black" stroke-width="2" fill="none" />
<path d="M2596.0629921259842,-2211.0236220472443 L151.18110236220485,-2211.0236220472443" stroke="black" stroke-width="2" fill="none" />
<path d="M151.18110236220485,-2211.0236220472443 L118.11023622047261,-3016.535433070866" stroke="black" stroke-width="2" fill="none" />
<path d="M118.11023622047244,-2092.9133858267714 L2629.1338582677167,-2092.9133858267714" stroke="black" stroke-width="2" fill="none" />
<path d="M2629.1338582677167,-2092.9133858267714 L2596.0629921259842,-1287.4015748031495" stroke="black" stroke-width="2" fill="none" />
<path d="M2596.0629921259842,-1287.4015748031497 L151.18110236220485,-1287.4015748031497" stroke="black" stroke-width="2" fill="none" />
<path d="M151.18110236220485,-1287.4015748031497 L118.11023622047261,-2092.9133858267714" stroke="black" stroke-width="2" fill="none" />
<text x="118.11023622047244" y="-283.46456692913387" font-size="100.0" dy="0em">14cm Ruler</text>
<text x="3425.196850393701" y="-283.46456692913387" font-size="100.0" text-anchor="end" dy="0em">github.com/hammond-foam</text>
<path d="M118.11023622047244,-236.2204724409449 L354.33070866141736,-236.2204724409449" stroke="black" stroke-width="2" fill="none" />
<path d="M354.33070866141736,-236.2204724409449 L354.33070866141736,-118.11023622047244" stroke="black" stroke-width="2" fill="none" />
<path d="M354.33070866141736,-118.11023622047244 L118.11023622047244,-118.11023622047244" stroke="black" stroke-width="2" fill="none" />
<path d="M118.11023622047244,-118.11023622047244 L118.11023622047244,-236.2204724409449" stroke="black" stroke-width="2" fill="none" />
<path d="M354.33070866141736,-236.2204724409449 L590.5511811023622,-236.2204724409449" stroke="black" stroke-width="2" fill="none" />
<path d="M590.5511811023622,-236.2204724409449 L590.5511811023622,-118.11023622047244" stroke="black" stroke-width="2" fill="none" />
<path d="M590.5511811023622,-118.11023622047244 L354.33070866141736,-118.11023622047244" stroke="black" stroke-width="2" fill="none" />
<path d="M354.33070866141736,-118.11023622047244 L354.33070866141736,-236.2204724409449" stroke="black" stroke-width="2" fill="none" />
<path d="M590.5511811023622,-236.2204724409449 L826.7716535433071,-236.2204724409449" stroke="black" stroke-width="2" fill="none" />
<path d="M826.7716535433071,-236.2204724409449 L826.7716535433071,-118.11023622047244" stroke="black" stroke-width="2" fill="none" />
<path d="M826.7716535433071,-118.11023622047244 L590.5511811023622,-118.11023622047244" stroke="black" stroke-width="2" fill="none" />
<path d="M590.5511811023622,-118.11023622047244 L590.5511811023622,-236.2204724409449" stroke="black" stroke-width="2" fill="none" />
<path d="M826.7716535433071,-236.2204724409449 L1062.992125984252,-236.2204724409449" stroke="black" stroke-width="2" fill="none" />
<path d="M1062.992125984252,-236.2204724409449 L1062.992125984252,-118.11023622047244" stroke="black" stroke-width="2" fill="none" />
<path d="M1062.992125984252,-118.11023622047244 L826.7716535433071,-118.11023622047244" stroke="black" stroke-width="2" fill="none" />
<path d="M826.7716535433071,-118.11023622047244 L826.7716535433071,-236.2204724409449" stroke="black" stroke-width="2" fill="none" />
<path d="M1062.992125984252,-236.2204724409449 L1299.212598425197,-236.2204724409449" stroke="black" stroke-width="2" fill="none" />
<path d="M1299.212598425197,-236.2204724409449 L1299.212598425197,-118.11023622047244" stroke="black" stroke-width="2" fill="none" />
<path d="M1299.212598425197,-118.11023622047244 L1062.992125984252,-118.11023622047244" stroke="black" stroke-width="2" fill="none" />
<path d="M1062.992125984252,-118.11023622047244 L1062.992125984252,-236.2204724409449" stroke="black" stroke-width="2" fill="none" />
<path d="M1299.212598425197,-236.2204724409449 L1535.4330708661419,-236.2204724409449" stroke="black" stroke-width="2" fill="none" />
<path d="M1535.4330708661419,-236.2204724409449 L1535.4330708661419,-118.11023622047244" stroke="black" stroke-width="2" fill="none" />
<path d="M1535.4330708661419,-118.11023622047244 L1299.212598425197,-118.11023622047244" stroke="black" stroke-width="2" fill="none" />
<path d="M1299.212598425197,-118.11023622047244 L1299.212598425197,-236.2204724409449" stroke="black" stroke-width="2" fill="none" />
<path d="M1535.4330708661419,-236.2204724409449 L1771.6535433070867,-236.2204724409449" stroke="black" stroke-width="2" fill="none" />
<path d="M1771.6535433070867,-236.2204724409449 L1771.6535433070867,-118.11023622047244" stroke="black" stroke-width="2" fill="none" />
<path d="M1771.6535433070867,-118.11023622047244 L1535.4330708661419,-118.11023622047244" stroke="black" stroke-width="2" fill="none" />
<path d="M1535.4330708661419,-118.11023622047244 L1535.4330708661419,-236.2204724409449" stroke="black" stroke-width="2" fill="none" />
<path d="M1771.6535433070867,-236.2204724409449 L2007.8740157480318,-236.2204724409449" stroke="black" stroke-width="2" fill="none" />
<path d="M2007.8740157480318,-236.2204724409449 L2007.8740157480318,-118.11023622047244" stroke="black" stroke-width="2" fill="none" />
<path d="M2007.8740157480318,-118.11023622047244 L1771.6535433070867,-118.11023622047244" stroke="black" stroke-width="2" fill="none" />
<path d="M1771.6535433070867,-118.11023622047244 L1771.6535433070867,-236.2204724409449" stroke="black" stroke-width="2" fill="none" />
<path d="M2007.8740157480318,-236.2204724409449 L2244.0944881889764,-236.2204724409449" stroke="black" stroke-width="2" fill="none" />
<path d="M2244.0944881889764,-236.2204724409449 L2244.0944881889764,-118.11023622047244" stroke="black" stroke-width="2" fill="none" />
<path d="M2244.0944881889764,-118.11023622047244 L2007.8740157480318,-118.11023622047244" stroke="black" stroke-width="2" fill="none" />
<path d="M2007.8740157480318,-118.11023622047244 L2007.8740157480318,-236.2204724409449" stroke="black" stroke-width="2" fill="none" />
<path d="M2244.0944881889764,-236.2204724409449 L2480.3149606299216,-236.2204724409449" stroke="black" stroke-width="2" fill="none" />
<path d="M2480.3149606299216,-236.2204724409449 L2480.3149606299216,-118.11023622047244" stroke="black" stroke-width="2" fill="none" />
<path d="M2480.3149606299216,-118.11023622047244 L2244.0944881889764,-118.11023622047244" stroke="black" stroke-width="2" fill="none" />
<path d="M2244.0944881889764,-118.11023622047244 L2244.0944881889764,-236.2204724409449" stroke="black" stroke-width="2" fill="none" />
<path d="M2480.3149606299216,-236.2204724409449 L2716.535433070866,-236.2204724409449" stroke="black" stroke-width="2" fill="none" />
<path d="M2716.535433070866,-236.2204724409449 L2716.535433070866,-118.11023622047244" stroke="black" stroke-width="2" fill="none" />
<path d="M2716.535433070866,-118.11023622047244 L2480.3149606299216,-118.11023622047244" stroke="black" stroke-width="2" fill="none" />
<path d="M2480.3149606299216,-118.11023622047244 L2480.3149606299216,-236.2204724409449" stroke="black" stroke-width="2" fill="none" />
<path d="M2716.535433070866,-236.2204724409449 L2952.7559055118113,-236.2204724409449" stroke="black" stroke-width="2" fill="none" />
<path d="M2952.7559055118113,-236.2204724409449 L2952.7559055118113,-118.11023622047244" stroke="black" stroke-width="2" fill="none" />
<path d="M2952.7559055118113,-118.11023622047244 L2716.535433070866,-118.11023622047244" stroke="black" stroke-width="2" fill="none" />
<path d="M2716.535433070866,-118.11023622047244 L2716.535433070866,-236.2204724409449" stroke="black" stroke-width="2" fill="none" />
<path d="M2952.7559055118113,-236.2204724409449 L3188.976377952756,-236.2204724409449" stroke="black" stroke-width="2" fill="none" />
<path d="M3188.976377952756,-236.2204724409449 L3188.976377952756,-118.11023622047244" stroke="black" stroke-width="2" fill="none" />
<path d="M3188.976377952756,-118.11023622047244 L2952.7559055118113,-118.11023622047244" stroke="black" stroke-width="2" fill="none" />
<path d="M2952.7559055118113,-118.11023622047244 L2952.7559055118113,-236.2204724409449" stroke="black" stroke-width="2" fill="none" />
<path d="M3188.976377952756,-236.2204724409449 L3425.196850393701,-236.2204724409449" stroke="black" stroke-width="2" fill="none" />
<path d="M3425.196850393701,-236.2204724409449 L3425.196850393701,-118.11023622047244" stroke="black" stroke-width="2" fill="none" />
<path d="M3425.196850393701,-118.11023622047244 L3188.976377952756,-118.11023622047244" stroke="black" stroke-width="2" fill="none" />
<path d="M3188.976377952756,-118.11023622047244 L3188.976377952756,-236.2204724409449" stroke="black" stroke-width="2" fill="none" />
</svg>